<?xml version="1.0" encoding="utf-8"?>
<!-- Generator: Adobe Illustrator 17.0.0, SVG Export Plug-In . SVG Version: 6.00 Build 0)  -->
<!DOCTYPE svg PUBLIC "-//W3C//DTD SVG 1.1//EN" "http://www.w3.org/Graphics/SVG/1.1/DTD/svg11.dtd">
<svg version="1.1" id="Capa_1" xmlns="http://www.w3.org/2000/svg" xmlns:xlink="http://www.w3.org/1999/xlink" x="0px" y="0px"
	 width="40px" height="40px" viewBox="0 0 40 40" enable-background="new 0 0 40 40" xml:space="preserve">
<path d="M20.6,4.999c-0.3,0-0.7,0.1-1.2,0.3c0,0-7.8,6.792-8.2,7.191H6.9c-1,0-1.9,0.799-1.9,1.898v11.486
	c0,0.999,0.8,1.898,1.9,1.898h4.3c0.3,0.3,8.2,6.891,8.2,6.891c0.5,0.3,0.9,0.399,1.2,0.3c0.7-0.1,1.2-0.599,1.3-1.298
	c0-0.1,0-27.366,0-27.466C21.8,5.598,21.3,4.999,20.6,4.999z"/>
<path d="M31.5,19.98l3.2-3.196c0.4-0.4,0.4-1.199,0-1.598s-1.2-0.4-1.6,0l-3.2,3.196l-3.2-3.196c-0.4-0.4-1.2-0.4-1.6,0
	s-0.4,1.198,0,1.598l3.2,3.196l-3.2,3.196c-0.4,0.399-0.4,1.199,0,1.598c0.4,0.4,1.2,0.4,1.6,0l3.2-3.196l3.2,3.196
	c0.4,0.4,1.2,0.4,1.6,0c0.4-0.399,0.4-1.199,0-1.598L31.5,19.98z"/>
</svg>
