<?xml version="1.0" encoding="utf-8"?>
<!-- Generator: Adobe Illustrator 21.0.0, SVG Export Plug-In . SVG Version: 6.00 Build 0) -->
<svg version="1.1" id="Capa_1" xmlns="http://www.w3.org/2000/svg" xmlns:xlink="http://www.w3.org/1999/xlink" x="0px" y="0px"
	 viewBox="0 0 40 40" style="enable-background:new 0 0 40 40;" xml:space="preserve">
<path d="M33.6,6.2c0.8,0,1.4,0.6,1.4,1.4v24.8c0,0.8-0.6,1.4-1.4,1.4l-23-12.7c0,0-1.1-1.1,0-2.1C11.7,17.9,33.6,6.2,33.6,6.2z"/>
<path d="M9.7,32.3c0,0.8-0.7,1.5-1.5,1.5H6.5c-0.8,0-1.5-0.7-1.5-1.5V7.8C5,7,5.7,6.3,6.5,6.3h1.7C9,6.3,9.7,7,9.7,7.8V32.3z"/>
</svg>
